P2
# PGM Sample Image : CTH
25 9
255
0  0  0  0  0  0 0  0  0  0  0  0 0   0   0   0   0   0 0   0   0   0   0   0 0
0 32 32 32 32 32 0 64 64 64 64 64 0 128   0   0 128   0 0   0 255   0 255   0 0
0 32  0  0  0  0 0  0  0 64  0  0 0 128   0   0 128   0 0 255 255 255 255 255 0
0 32  0  0  0  0 0  0  0 64  0  0 0 128   0   0 128   0 0 255   0 255   0 255 0
0 32  0  0  0  0 0  0  0 64  0  0 0 128 128 128 128   0 0 255 255 255 255 255 0
0 32  0  0  0  0 0  0  0 64  0  0 0 128   0   0 128   0 0 255 255 255 255 255 0
0 32  0  0  0  0 0  0  0 64  0  0 0 128   0   0 128   0 0   0 255   0 255   0 0
0 32 32 32 32 32 0  0  0 64  0  0 0 128   0   0 128   0 0   0 255 255 255   0 0
0  0  0  0  0  0 0  0  0  0  0  0 0   0   0   0   0   0 0   0   0   0   0   0 0
