P3
# PPM Sample Image : CTH
17 10
255
0  0  0   0  0  0   0  0  0   0  0  0   0  0  0      0 0 0   0   0   0   0   0   0   0   0   0  0   0   0   0   0   0   0  0  0     0   0   0     0  0   0     0   0   0     0   0   0 0  0  0
0  0  0 255  0  0 255  0  0 255  0  0 255  0  0      0 0 0   0 255 175   0 255 175   0 255 175  0 255 175   0 255 175   0  0  0   255   0 255     0  0   0     0   0   0   255   0 255 0  0  0
0  0  0 255  0  0   0  0  0   0  0  0   0  0  0      0 0 0   0   0   0   0   0   0   0 255 175  0   0   0   0   0   0   0  0  0   255   0 255     0  0   0     0   0   0   255   0 255 0  0  0
0  0  0 255  0  0   0  0  0   0  0  0   0  0  0      0 0 0   0   0   0   0   0   0   0 255 175  0   0   0   0   0   0   0  0  0   255   0 255     0  0   0     0   0   0   255   0 255 0  0  0
0  0  0 255  0  0   0  0  0   0  0  0   0  0  0      0 0 0   0   0   0   0   0   0   0 255 175  0   0   0   0   0   0   0  0  0   255   0 255   255  0 255   255   0 255   255   0 255 0  0  0 
0  0  0 255  0  0   0  0  0   0  0  0   0  0  0      0 0 0   0   0   0   0   0   0   0 255 175  0   0   0   0   0   0   0  0  0   255   0 255   255  0 255   255   0 255   255   0 255 0  0  0
0  0  0 255  0  0   0  0  0   0  0  0   0  0  0      0 0 0   0   0   0   0   0   0   0 255 175  0   0   0   0   0   0   0  0  0   255   0 255     0  0   0     0   0   0   255   0 255 0  0  0
0  0  0 255  0  0   0  0  0   0  0  0   0  0  0      0 0 0   0   0   0   0   0   0   0 255 175  0   0   0   0   0   0   0  0  0   255   0 255     0  0   0     0   0   0   255   0 255 0  0  0
0  0  0 255  0  0 255  0  0 255  0  0 255  0  0      0 0 0   0   0   0   0   0   0   0 255 175  0   0   0   0   0   0   0  0  0   255   0 255     0  0   0     0   0   0   255   0 255 0  0  0
0  0  0   0  0  0   0  0  0   0  0  0   0  0  0      0 0 0   0   0   0   0   0   0   0   0   0  0   0   0   0   0   0   0  0  0     0   0   0     0  0   0     0   0   0     0   0   0 0  0  0